# xmcd
#
# Track frame offsets:
#	150
#	11255
#	22752
#	36454
#	47676
#	59232
#	71504
#	83650
#	95077
#	107226
#	117674
#	130428
#
# Disc length: 1900 seconds
# Revision: 0
# Processed by: cddbd v1.5.2PL0 Copyright (c) Steve Scherf et al.
# Submitted via: dBpowerAMP V12.0
#
DISCID=a7076a0c
DTITLE=Jack Greene - All the Time [Decca] (L)
DYEAR=1967
DGENRE=Country
TTITLE0=Happy Tracks
TTITLE1=Crazy
TTITLE2=I'm a Lonesome Fugitive
TTITLE3=Walk Through This World With Me
TTITLE4=The Hardest Easy Thing
TTITLE5=I Can't Help It
TTITLE6=Cryin' Time
TTITLE7=She's Gone, Gone, Gone
TTITLE8=Touch My Heart
TTITLE9=Room For One More Heartache
TTITLE10=Wanting You but Never Having You
TTITLE11=All the Time
EXTD=
EXTT0=
EXTT1=
EXTT2=
EXTT3=
EXTT4=
EXTT5=
EXTT6=
EXTT7=
EXTT8=
EXTT9=
EXTT10=
EXTT11=
PLAYORDER=
